<svg xmlns="http://www.w3.org/2000/svg" width="256" height="256"><path fill-opacity=".11" d="M0 128.004v128.004l128.25-.254 128.25-.254.254-127.75L257.008 0H0v128.004m.485.496c0 70.4.119 99.053.265 63.672.146-35.38.146-92.98 0-128C.604 29.153.485 58.1.485 128.5" fill="#1976D2" fill-rule="evenodd"/><path fill-opacity=".128" d="M152 44.5l-9.46 9.5H44v124.584L48.5 183c4.255 4.176 4.501 4.718 4.513 9.958.022 9.395 2.222 12.361 28.018 37.77l23.531 23.178 9.469 1.168c11.051 1.364 27.35.682 38.621-1.616 25.785-5.259 46.68-16.533 65.477-35.329 25.14-25.14 37.25-54.292 37.335-89.872l.036-15.242-28-28.076c-15.4-15.442-29.634-28.927-31.632-29.967-1.997-1.041-6.722-2.187-10.5-2.547l-6.868-.655-8.52-8.385L161.46 35 152 44.5" fill="#1976D2" fill-rule="evenodd"/><path fill-opacity=".197" d="M152.493 44.923l-8.993 8.924-49.75.709-49.75.71V179h8.711l.637 6.75c.351 3.713.641 8.455.645 10.54.014 7.578 7.081 16.526 14.73 18.65 2.077.577 8.699 1.051 14.714 1.054l10.937.006-2.899 3.027-2.9 3.026 5.475 5.476 5.476 5.475 12.477-12.507 12.477-12.507-12.723-12.724-12.724-12.723-5.017 4.941c-2.759 2.717-5.016 5.383-5.016 5.924 0 .54 1.209 2.245 2.687 3.787L94.374 200H82.722C68.788 200 69 200.192 69 187.566V179h35.679l1.14 2.502c.627 1.377 2.612 3.4 4.411 4.497 3.147 1.919 5.082 1.994 51.443 1.997l48.174.004 3.047-2.564c1.676-1.411 3.508-4.223 4.071-6.25.616-2.217 1.026-18.931 1.029-41.936L218 99h-10l-.044-13.75c-.047-14.796-.929-18.903-5.282-24.611-4.391-5.756-8.502-7.096-22.924-7.468-7.012-.182-12.75-.567-12.75-.857 0-.289 1.125-1.411 2.5-2.493 1.375-1.081 2.5-2.513 2.5-3.181 0-1.125-8.98-10.64-10.041-10.64-.26 0-4.519 4.016-9.466 8.923M55.28 66.029c-4.334 1.726-4.349 8.517-.023 10.937 2.464 1.378 3.023 1.378 5.493.003 6.815-3.795 1.795-13.833-5.47-10.94m20.595.346c-1.897.946-2.375 1.976-2.375 5.116 0 3.25.477 4.199 2.75 5.471 2.473 1.383 3.027 1.383 5.493.004 7.071-3.956 1.39-14.209-5.868-10.591m93.135 5.135l3.402 3.51-5.424 5.493-5.425 5.492-5.781-5.721L150 74.563V110l8.25-.004 8.25-.005 6.16-5.495c6.145-5.482 6.177-5.496 12.75-5.496H192V85.057c0-17.49.391-17.057-15.419-17.057h-10.973l3.402 3.51M54.223 128.557c-2.64 1.848-2.984 6.539-.652 8.872 2.273 2.272 8.104 2.047 9.394-.363 3.584-6.697-2.657-12.772-8.742-8.509m20.432.272c-1.929 2.131-2.188 7.238-.455 8.971 1.712 1.712 7.373 1.484 9.229-.371.864-.865 1.571-2.864 1.571-4.444 0-5.145-6.93-7.93-10.345-4.156" fill="#1976D2" fill-rule="evenodd"/><path fill-opacity=".446" d="M151.994 45.506L142.54 55H44v123l5.25.177c2.888.097 16.386.21 29.996.25l24.746.073.004-34.25L104 110h46V73.563l5.783 5.723 5.784 5.723 4.921-4.996 4.92-4.996-3.4-3.509-3.4-3.508h12.639C193.476 68 193 67.472 193 85.473V98.5h14V84.218c0-18.776-1.9-23.485-11.5-28.504-3.277-1.713-6.318-2.169-16.829-2.523l-12.829-.432 3.072-3.17 3.073-3.17-5.269-5.204-5.269-5.203-9.455 9.494M53 67c-1.1 1.1-2 3.145-2 4.545C51 74.623 55.11 79 58 79c2.89 0 7-4.377 7-7.455C65 68.11 61.674 65 58 65c-1.667 0-3.889.889-5 2m21 0c-4.115 4.115-.711 12 5.18 12 2.662 0 6.82-4.431 6.82-7.266 0-5.759-7.871-8.863-12-4.734m-20.545 61.455C48.873 133.036 51.614 140 58 140c6.547 0 9.449-7.929 4.365-11.927-3.46-2.722-5.912-2.617-8.91.382m21.18-.382C69.57 132.056 72.451 140 78.961 140c3.527 0 7.039-3.359 7.039-6.734 0-2.835-4.158-7.266-6.82-7.266-1.051 0-3.096.933-4.545 2.073" fill="#1976D2" fill-rule="evenodd"/></svg>